<mxfile host="app.diagrams.net" agent="Mozilla/5.0 (Windows NT 10.0; Win64; x64) AppleWebKit/537.36 (KHTML, like Gecko) Chrome/132.0.0.0 Safari/537.36" version="26.0.11">
  <diagram name="Page-1" id="4RlkfcnR_PqCe1OXfHh5">
    <mxGraphModel dx="4513" dy="2453" grid="0" gridSize="10" guides="1" tooltips="1" connect="1" arrows="1" fold="1" page="0" pageScale="1" pageWidth="850" pageHeight="1100" math="0" shadow="0">
      <root>
        <mxCell id="0" />
        <mxCell id="1" parent="0" />
        <mxCell id="pD33aW6TEO5DDyHH2hGa-1" value="Administrador&lt;div&gt;&lt;br&gt;&lt;/div&gt;" style="shape=umlActor;verticalLabelPosition=bottom;verticalAlign=top;html=1;outlineConnect=0;" vertex="1" parent="1">
          <mxGeometry x="-479" y="157" width="108" height="188" as="geometry" />
        </mxCell>
        <mxCell id="pD33aW6TEO5DDyHH2hGa-2" value="" style="swimlane;startSize=0;" vertex="1" parent="1">
          <mxGeometry x="-147" y="-343" width="502" height="1188" as="geometry" />
        </mxCell>
        <mxCell id="pD33aW6TEO5DDyHH2hGa-4" value="CU1- Consultar Producto" style="ellipse;whiteSpace=wrap;html=1;" vertex="1" parent="pD33aW6TEO5DDyHH2hGa-2">
          <mxGeometry x="181" y="47" width="140" height="72" as="geometry" />
        </mxCell>
        <mxCell id="pD33aW6TEO5DDyHH2hGa-7" value="CU2- agregar producto" style="ellipse;whiteSpace=wrap;html=1;" vertex="1" parent="pD33aW6TEO5DDyHH2hGa-2">
          <mxGeometry x="181" y="156" width="140" height="72" as="geometry" />
        </mxCell>
        <mxCell id="pD33aW6TEO5DDyHH2hGa-8" value="CU3- Editar Producto" style="ellipse;whiteSpace=wrap;html=1;" vertex="1" parent="pD33aW6TEO5DDyHH2hGa-2">
          <mxGeometry x="181" y="258" width="140" height="72" as="geometry" />
        </mxCell>
        <mxCell id="pD33aW6TEO5DDyHH2hGa-9" value="CU4- Actualizar Producto" style="ellipse;whiteSpace=wrap;html=1;" vertex="1" parent="pD33aW6TEO5DDyHH2hGa-2">
          <mxGeometry x="181" y="363" width="140" height="72" as="geometry" />
        </mxCell>
        <mxCell id="pD33aW6TEO5DDyHH2hGa-10" value="CU10- Eliminar Producto" style="ellipse;whiteSpace=wrap;html=1;" vertex="1" parent="pD33aW6TEO5DDyHH2hGa-2">
          <mxGeometry x="181" y="975" width="140" height="72" as="geometry" />
        </mxCell>
        <mxCell id="pD33aW6TEO5DDyHH2hGa-11" value="CU11- Eliminar Productos&lt;span style=&quot;color: rgba(0, 0, 0, 0); font-family: monospace; font-size: 0px; text-align: start; text-wrap-mode: nowrap;&quot;&gt;%3CmxGraphModel%3E%3Croot%3E%3CmxCell%20id%3D%220%22%2F%3E%3CmxCell%20id%3D%221%22%20parent%3D%220%22%2F%3E%3CmxCell%20id%3D%222%22%20value%3D%22CU4-%20Eliminar%20Producto%22%20style%3D%22ellipse%3BwhiteSpace%3Dwrap%3Bhtml%3D1%3B%22%20vertex%3D%221%22%20parent%3D%221%22%3E%3CmxGeometry%20x%3D%22-96%22%20y%3D%22446%22%20width%3D%22140%22%20height%3D%2272%22%20as%3D%22geometry%22%2F%3E%3C%2FmxCell%3E%3C%2Froot%3E%3C%2FmxGraphModel%3E&lt;/span&gt;" style="ellipse;whiteSpace=wrap;html=1;" vertex="1" parent="pD33aW6TEO5DDyHH2hGa-2">
          <mxGeometry x="181" y="1076" width="140" height="72" as="geometry" />
        </mxCell>
        <mxCell id="pD33aW6TEO5DDyHH2hGa-12" value="CU6- Consultar categoría&lt;span style=&quot;color: rgba(0, 0, 0, 0); font-family: monospace; font-size: 0px; text-align: start; text-wrap-mode: nowrap;&quot;&gt;%3CmxGraphModel%3E%3Croot%3E%3CmxCell%20id%3D%220%22%2F%3E%3CmxCell%20id%3D%221%22%20parent%3D%220%22%2F%3E%3CmxCell%20id%3D%222%22%20value%3D%22CU4-%20Eliminar%20Producto%22%20style%3D%22ellipse%3BwhiteSpace%3Dwrap%3Bhtml%3D1%3B%22%20vertex%3D%221%22%20parent%3D%221%22%3E%3CmxGeometry%20x%3D%22-96%22%20y%3D%22446%22%20width%3D%22140%22%20height%3D%2272%22%20as%3D%22geometry%22%2F%3E%3C%2FmxCell%3E%3C%2Froot%3E%3C%2FmxGraphModel&lt;/span&gt;" style="ellipse;whiteSpace=wrap;html=1;" vertex="1" parent="pD33aW6TEO5DDyHH2hGa-2">
          <mxGeometry x="181" y="571" width="140" height="72" as="geometry" />
        </mxCell>
        <mxCell id="pD33aW6TEO5DDyHH2hGa-13" value="CU7- Agregar categoría&lt;span style=&quot;color: rgba(0, 0, 0, 0); font-family: monospace; font-size: 0px; text-align: start; text-wrap-mode: nowrap;&quot;&gt;%3CmxGraphModel%3E%3Croot%3E%3CmxCell%20id%3D%220%22%2F%3E%3CmxCell%20id%3D%221%22%20parent%3D%220%22%2F%3E%3CmxCell%20id%3D%222%22%20value%3D%22CU4-%20Eliminar%20Producto%22%20style%3D%22ellipse%3BwhiteSpace%3Dwrap%3Bhtml%3D1%3B%22%20vertex%3D%221%22%20parent%3D%221%22%3E%3CmxGeometry%20x%3D%22-96%22%20y%3D%22446%22%20width%3D%22140%22%20height%3D%2272%22%20as%3D%22geometry%22%2F%3E%3C%2FmxCell%3E%3C%2Froot%3E%3C%2FmxGraphMode&lt;/span&gt;" style="ellipse;whiteSpace=wrap;html=1;" vertex="1" parent="pD33aW6TEO5DDyHH2hGa-2">
          <mxGeometry x="181" y="672" width="140" height="72" as="geometry" />
        </mxCell>
        <mxCell id="pD33aW6TEO5DDyHH2hGa-14" value="CU8- Editar categoría&lt;span style=&quot;color: rgba(0, 0, 0, 0); font-family: monospace; font-size: 0px; text-align: start; text-wrap-mode: nowrap;&quot;&gt;%3CmxGraphModel%3E%3Croot%3E%3CmxCell%20id%3D%220%22%2F%3E%3CmxCell%20id%3D%221%22%20parent%3D%220%22%2F%3E%3CmxCell%20id%3D%222%22%20value%3D%22CU4-%20Eliminar%20Producto%22%20style%3D%22ellipse%3BwhiteSpace%3Dwrap%3Bhtml%3D1%3B%22%20vertex%3D%221%22%20parent%3D%221%22%3E%3CmxGeometry%20x%3D%22-96%22%20y%3D%22446%22%20width%3D%22140%22%20height%3D%2272%22%20as%3D%22geometry%22%2F%3E%3C%2FmxCell%3E%3C%2Froot%3E%3C%2FmxGraphMode&lt;/span&gt;" style="ellipse;whiteSpace=wrap;html=1;" vertex="1" parent="pD33aW6TEO5DDyHH2hGa-2">
          <mxGeometry x="181" y="773" width="140" height="72" as="geometry" />
        </mxCell>
        <mxCell id="pD33aW6TEO5DDyHH2hGa-15" value="CU9- Actualizar categoría&lt;span style=&quot;color: rgba(0, 0, 0, 0); font-family: monospace; font-size: 0px; text-align: start; text-wrap-mode: nowrap;&quot;&gt;%3CmxGraphModel%3E%3Croot%3E%3CmxCell%20id%3D%220%22%2F%3E%3CmxCell%20id%3D%221%22%20parent%3D%220%22%2F%3E%3CmxCell%20id%3D%222%22%20value%3D%22CU4-%20Eliminar%20Producto%22%20style%3D%22ellipse%3BwhiteSpace%3Dwrap%3Bhtml%3D1%3B%22%20vertex%3D%221%22%20parent%3D%221%22%3E%3CmxGeometry%20x%3D%22-96%22%20y%3D%22446%22%20width%3D%22140%22%20height%3D%2272%22%20as%3D%22geometry%22%2F%3E%3C%2FmxCell%3E%3C%2Froot%3E%3C%2FmxGraphMode&lt;/span&gt;" style="ellipse;whiteSpace=wrap;html=1;" vertex="1" parent="pD33aW6TEO5DDyHH2hGa-2">
          <mxGeometry x="181" y="874" width="140" height="72" as="geometry" />
        </mxCell>
        <mxCell id="pD33aW6TEO5DDyHH2hGa-16" value="CU5- Eliminar categoría&lt;span style=&quot;color: rgba(0, 0, 0, 0); font-family: monospace; font-size: 0px; text-align: start; text-wrap-mode: nowrap;&quot;&gt;%3CmxGraphModel%3E%3Croot%3E%3CmxCell%20id%3D%220%22%2F%3E%3CmxCell%20id%3D%221%22%20parent%3D%220%22%2F%3E%3CmxCell%20id%3D%222%22%20value%3D%22CU4-%20Eliminar%20Producto%22%20style%3D%22ellipse%3BwhiteSpace%3Dwrap%3Bhtml%3D1%3B%22%20vertex%3D%221%22%20parent%3D%221%22%3E%3CmxGeometry%20x%3D%22-96%22%20y%3D%22446%22%20width%3D%22140%22%20height%3D%2272%22%20as%3D%22geometry%22%2F%3E%3C%2FmxCell%3E%3C%2Froot%3E%3C%2FmxGraphMode&lt;/span&gt;" style="ellipse;whiteSpace=wrap;html=1;" vertex="1" parent="pD33aW6TEO5DDyHH2hGa-2">
          <mxGeometry x="181" y="464" width="140" height="72" as="geometry" />
        </mxCell>
        <mxCell id="pD33aW6TEO5DDyHH2hGa-17" value="" style="endArrow=none;html=1;rounded=0;fontSize=12;startSize=8;endSize=8;curved=1;entryX=0;entryY=0.5;entryDx=0;entryDy=0;exitX=1;exitY=0.3333333333333333;exitDx=0;exitDy=0;exitPerimeter=0;" edge="1" parent="1" source="pD33aW6TEO5DDyHH2hGa-1" target="pD33aW6TEO5DDyHH2hGa-4">
          <mxGeometry width="50" height="50" relative="1" as="geometry">
            <mxPoint x="-28" y="522" as="sourcePoint" />
            <mxPoint x="22" y="472" as="targetPoint" />
          </mxGeometry>
        </mxCell>
        <mxCell id="pD33aW6TEO5DDyHH2hGa-18" value="" style="endArrow=none;html=1;rounded=0;fontSize=12;startSize=8;endSize=8;curved=1;entryX=0;entryY=0.5;entryDx=0;entryDy=0;exitX=1;exitY=0.3333333333333333;exitDx=0;exitDy=0;exitPerimeter=0;" edge="1" parent="1" source="pD33aW6TEO5DDyHH2hGa-1" target="pD33aW6TEO5DDyHH2hGa-7">
          <mxGeometry width="50" height="50" relative="1" as="geometry">
            <mxPoint x="-521" y="549" as="sourcePoint" />
            <mxPoint x="-471" y="499" as="targetPoint" />
          </mxGeometry>
        </mxCell>
        <mxCell id="pD33aW6TEO5DDyHH2hGa-19" value="" style="endArrow=none;html=1;rounded=0;fontSize=12;startSize=8;endSize=8;curved=1;entryX=0;entryY=0.5;entryDx=0;entryDy=0;exitX=1;exitY=0.3333333333333333;exitDx=0;exitDy=0;exitPerimeter=0;" edge="1" parent="1" source="pD33aW6TEO5DDyHH2hGa-1" target="pD33aW6TEO5DDyHH2hGa-8">
          <mxGeometry width="50" height="50" relative="1" as="geometry">
            <mxPoint x="-521" y="592" as="sourcePoint" />
            <mxPoint x="-471" y="542" as="targetPoint" />
          </mxGeometry>
        </mxCell>
        <mxCell id="pD33aW6TEO5DDyHH2hGa-20" value="" style="endArrow=none;html=1;rounded=0;fontSize=12;startSize=8;endSize=8;curved=1;entryX=0;entryY=0.5;entryDx=0;entryDy=0;exitX=1;exitY=0.3333333333333333;exitDx=0;exitDy=0;exitPerimeter=0;" edge="1" parent="1" source="pD33aW6TEO5DDyHH2hGa-1" target="pD33aW6TEO5DDyHH2hGa-9">
          <mxGeometry width="50" height="50" relative="1" as="geometry">
            <mxPoint x="-28" y="522" as="sourcePoint" />
            <mxPoint x="22" y="472" as="targetPoint" />
          </mxGeometry>
        </mxCell>
        <mxCell id="pD33aW6TEO5DDyHH2hGa-21" value="" style="endArrow=none;html=1;rounded=0;fontSize=12;startSize=8;endSize=8;curved=1;entryX=0;entryY=0.5;entryDx=0;entryDy=0;exitX=1;exitY=0.3333333333333333;exitDx=0;exitDy=0;exitPerimeter=0;" edge="1" parent="1" source="pD33aW6TEO5DDyHH2hGa-1" target="pD33aW6TEO5DDyHH2hGa-16">
          <mxGeometry width="50" height="50" relative="1" as="geometry">
            <mxPoint x="-28" y="522" as="sourcePoint" />
            <mxPoint x="22" y="472" as="targetPoint" />
          </mxGeometry>
        </mxCell>
        <mxCell id="pD33aW6TEO5DDyHH2hGa-22" value="" style="endArrow=none;html=1;rounded=0;fontSize=12;startSize=8;endSize=8;curved=1;entryX=0;entryY=0.5;entryDx=0;entryDy=0;exitX=1;exitY=0.3333333333333333;exitDx=0;exitDy=0;exitPerimeter=0;" edge="1" parent="1" source="pD33aW6TEO5DDyHH2hGa-1" target="pD33aW6TEO5DDyHH2hGa-12">
          <mxGeometry width="50" height="50" relative="1" as="geometry">
            <mxPoint x="-28" y="522" as="sourcePoint" />
            <mxPoint x="22" y="472" as="targetPoint" />
          </mxGeometry>
        </mxCell>
        <mxCell id="pD33aW6TEO5DDyHH2hGa-23" value="" style="endArrow=none;html=1;rounded=0;fontSize=12;startSize=8;endSize=8;curved=1;entryX=1;entryY=0.3333333333333333;entryDx=0;entryDy=0;entryPerimeter=0;exitX=0;exitY=0.5;exitDx=0;exitDy=0;" edge="1" parent="1" source="pD33aW6TEO5DDyHH2hGa-13" target="pD33aW6TEO5DDyHH2hGa-1">
          <mxGeometry width="50" height="50" relative="1" as="geometry">
            <mxPoint x="-28" y="522" as="sourcePoint" />
            <mxPoint x="22" y="472" as="targetPoint" />
          </mxGeometry>
        </mxCell>
        <mxCell id="pD33aW6TEO5DDyHH2hGa-24" value="" style="endArrow=none;html=1;rounded=0;fontSize=12;startSize=8;endSize=8;curved=1;exitX=1;exitY=0.3333333333333333;exitDx=0;exitDy=0;exitPerimeter=0;entryX=0;entryY=0.5;entryDx=0;entryDy=0;" edge="1" parent="1" source="pD33aW6TEO5DDyHH2hGa-1" target="pD33aW6TEO5DDyHH2hGa-14">
          <mxGeometry width="50" height="50" relative="1" as="geometry">
            <mxPoint x="-28" y="522" as="sourcePoint" />
            <mxPoint x="22" y="464" as="targetPoint" />
          </mxGeometry>
        </mxCell>
        <mxCell id="pD33aW6TEO5DDyHH2hGa-25" value="" style="endArrow=none;html=1;rounded=0;fontSize=12;startSize=8;endSize=8;curved=1;exitX=1;exitY=0.3333333333333333;exitDx=0;exitDy=0;exitPerimeter=0;entryX=0;entryY=0.5;entryDx=0;entryDy=0;" edge="1" parent="1" source="pD33aW6TEO5DDyHH2hGa-1" target="pD33aW6TEO5DDyHH2hGa-15">
          <mxGeometry width="50" height="50" relative="1" as="geometry">
            <mxPoint x="-28" y="522" as="sourcePoint" />
            <mxPoint x="22" y="472" as="targetPoint" />
          </mxGeometry>
        </mxCell>
        <mxCell id="pD33aW6TEO5DDyHH2hGa-26" value="" style="endArrow=none;html=1;rounded=0;fontSize=12;startSize=8;endSize=8;curved=1;exitX=1;exitY=0.3333333333333333;exitDx=0;exitDy=0;exitPerimeter=0;entryX=0;entryY=0.5;entryDx=0;entryDy=0;" edge="1" parent="1" source="pD33aW6TEO5DDyHH2hGa-1" target="pD33aW6TEO5DDyHH2hGa-10">
          <mxGeometry width="50" height="50" relative="1" as="geometry">
            <mxPoint x="-28" y="522" as="sourcePoint" />
            <mxPoint x="22" y="472" as="targetPoint" />
          </mxGeometry>
        </mxCell>
        <mxCell id="pD33aW6TEO5DDyHH2hGa-27" value="" style="endArrow=none;html=1;rounded=0;fontSize=12;startSize=8;endSize=8;curved=1;exitX=1;exitY=0.3333333333333333;exitDx=0;exitDy=0;exitPerimeter=0;entryX=0;entryY=0.5;entryDx=0;entryDy=0;" edge="1" parent="1" source="pD33aW6TEO5DDyHH2hGa-1" target="pD33aW6TEO5DDyHH2hGa-11">
          <mxGeometry width="50" height="50" relative="1" as="geometry">
            <mxPoint x="-28" y="522" as="sourcePoint" />
            <mxPoint x="22" y="472" as="targetPoint" />
          </mxGeometry>
        </mxCell>
      </root>
    </mxGraphModel>
  </diagram>
</mxfile>
